<svg width="50" height="50" viewBox="0 0 50 50" fill="none" xmlns="http://www.w3.org/2000/svg">
<g clip-path="url(#clip0)">
<path fill-rule="evenodd" clip-rule="evenodd" d="M3.33376 12.4888C10.2227 0.577718 25.6004 -3.55562 37.5115 3.33327C49.4226 10.2222 53.556 25.5555 46.6671 37.5111C39.7782 49.4222 24.4004 53.5555 12.4893 46.6666C0.578206 39.7777 -3.55513 24.3999 3.33376 12.4888Z" fill="#FF026C"/>
<path fill-rule="evenodd" clip-rule="evenodd" d="M35.7338 29.4222H32.9782V33.9555C32.9782 34.5333 32.4893 35.0666 31.8671 35.0666H18.1338C17.5115 35.0666 17.0227 34.5333 17.0227 33.9555V29.4222H14.2227V33.9555C14.2227 36.0888 15.956 37.7777 18.0893 37.7777H31.8227C34.0004 37.7777 35.6893 36.0888 35.6893 33.9555V29.4222H35.7338ZM34.9782 22.1333L25.2004 31.8666C25.1115 32 24.8893 32 24.8004 31.8666L15.0671 22.1333C14.9338 22.0444 14.9338 21.8222 15.0671 21.7333L17.2004 19.5555L23.3782 25.7333V12.7111C23.3782 12.4 23.6004 12.1777 23.8671 12.1777H26.1782C26.4893 12.1777 26.7115 12.4 26.7115 12.7111V25.7333L32.8449 19.5555L35.0227 21.7333C35.0671 21.8666 35.0671 22.0444 34.9782 22.1333Z" fill="white"/>
</g>
<defs>
<clipPath id="clip0">
<rect width="50" height="50" fill="white"/>
</clipPath>
</defs>
</svg>
