<svg width="50" height="50" viewBox="0 0 50 50" fill="none" xmlns="http://www.w3.org/2000/svg">
<path d="M25.3002 24.8999L28.5002 32.3999L36.4002 32.9999L30.4002 38.4999L32.2002 45.9999L25.3002 42.1999L18.5002 45.9999L20.2002 38.4999L14.2002 32.9999L22.2002 32.3999L25.3002 24.8999Z" stroke="#FF026C" stroke-miterlimit="10" stroke-linejoin="bevel"/>
<path d="M32.4004 29.0001L35.0004 28.8001L37.6004 22.6001L40.2004 28.8001L46.8004 29.3001L41.9004 33.8001L43.3004 40.1001L37.6004 36.9001L34.5004 38.7001" stroke="#FF026C" stroke-miterlimit="10" stroke-linejoin="bevel"/>
<path d="M17.4 29.0001L14.8 28.8001L12.2 22.6001L9.6 28.8001L3 29.3001L7.9 33.8001L6.5 40.1001L12.2 36.9001L15.3 38.7001" stroke="#FF026C" stroke-miterlimit="10" stroke-linejoin="bevel"/>
<path d="M32.2998 26V20.5C32.2998 19 28.3998 17 25.2998 17C22.1998 17 18.2998 19 18.2998 20.5V26" stroke="#FF026C" stroke-miterlimit="10" stroke-linejoin="bevel"/>
<path d="M25.2998 5C23.1998 5 21.2998 6.5 21.2998 8.2V10.7C21.2998 12.5 23.1998 13.9 25.2998 13.9C27.3998 13.9 29.2998 12.4 29.2998 10.7V8.2C29.2998 6.5 27.2998 5 25.2998 5Z" stroke="#FF026C" stroke-miterlimit="10" stroke-linejoin="bevel"/>
</svg>
