<svg width="50" height="50" viewBox="0 0 50 50" fill="none" xmlns="http://www.w3.org/2000/svg">
<path d="M12.5008 39.7727H5.68262V46.5909" stroke="#FF026C" stroke-miterlimit="10"/>
<path d="M46.7053 15.3408C48.069 18.409 48.8644 21.7045 48.8644 24.9999C48.8644 31.1363 46.4781 37.2726 41.819 41.9317C37.1599 46.5908 31.1372 48.7499 25.0008 48.8636C18.2963 48.9772 13.4099 46.9317 9.09171 43.1817C8.29625 42.4999 5.68262 39.7726 5.68262 39.7726" stroke="#FF026C" stroke-miterlimit="10"/>
<path d="M3.29581 34.6591C1.93217 31.5909 1.13672 28.2954 1.13672 25C1.13672 18.8636 3.52308 12.7272 8.18217 8.06815C12.8413 3.40906 18.864 1.24997 25.0004 1.13633C31.7049 1.02269 36.5913 3.06815 40.9094 6.81815C41.7049 7.49997 44.3185 10.2272 44.3185 10.2272" stroke="#FF026C" stroke-miterlimit="10"/>
<path d="M37.5 10.2272H44.3182V3.40906" stroke="#FF026C" stroke-miterlimit="10"/>
<path d="M24.9999 28.409C27.0454 28.409 28.409 26.7045 28.409 24.5454V23.2954C28.409 21.1363 27.0454 19.4318 24.9999 19.4318C22.9545 19.4318 21.5908 21.1363 21.5908 23.2954V24.5454C21.5908 26.7045 22.9545 28.409 24.9999 28.409Z" stroke="#FF026C" stroke-miterlimit="10"/>
<path d="M31.819 36.3636V31.8181C31.819 28.9772 27.3872 28.4091 25.0008 28.4091C22.6144 28.4091 18.1826 28.9772 18.1826 31.8181V36.3636" stroke="#FF026C" stroke-miterlimit="10"/>
<path d="M35.2275 26.1363C33.182 26.1363 31.8184 24.4318 31.8184 22.2727V21.0227C31.8184 18.8636 33.182 17.1591 35.2275 17.1591C37.2729 17.1591 38.6365 18.8636 38.6365 21.0227V22.2727C38.6365 24.4318 37.2729 26.1363 35.2275 26.1363Z" stroke="#FF026C" stroke-miterlimit="10"/>
<path d="M30.6826 26.9318C32.1599 26.3636 33.9781 26.1364 35.2281 26.1364C37.6144 26.1364 42.0463 26.7045 42.0463 29.5454V31.8182" stroke="#FF026C" stroke-miterlimit="10"/>
<path d="M14.7733 26.1363C16.8188 26.1363 18.1824 24.4318 18.1824 22.2727V21.0227C18.1824 18.8636 16.8188 17.1591 14.7733 17.1591C12.7279 17.1591 11.3643 18.8636 11.3643 21.0227V22.2727C11.3643 24.4318 12.7279 26.1363 14.7733 26.1363Z" stroke="#FF026C" stroke-miterlimit="10"/>
<path d="M19.3187 26.9318C17.8414 26.3636 16.0233 26.1364 14.7733 26.1364C12.3869 26.1364 7.95508 26.7045 7.95508 29.5454V31.8182" stroke="#FF026C" stroke-miterlimit="10"/>
</svg>
