<svg width="50" height="50" viewBox="0 0 50 50" fill="none" xmlns="http://www.w3.org/2000/svg">
<path d="M22.1489 38.4254L21.1915 29.8084L14.4894 25.9786V16.4041C14.4894 14.585 13.2447 14.3935 11.617 13.5318C10.0851 12.7658 8.55319 12.5744 6.82979 13.5318C5.10638 14.4893 3.95745 15.4467 3.95745 15.4467C3.38298 16.0212 3 16.8829 3 17.7446V24.0637M7.78723 16.4041V25.4041C7.78723 26.9361 8.26596 28.6595 9.89362 29.3297L17.3617 32.202L18.3191 38.4254" stroke="#FF026C" stroke-miterlimit="10" stroke-linecap="round"/>
<path d="M6.92578 44.1703L12.2875 30.2874" stroke="#FF026C" stroke-miterlimit="10" stroke-linecap="round"/>
<path d="M8.45741 28.0852L3.0957 44.1703" stroke="#FF026C" stroke-miterlimit="10" stroke-linecap="round"/>
<path d="M13.6276 10.6596C15.7428 10.6596 17.4574 8.94492 17.4574 6.82979C17.4574 4.71465 15.7428 3 13.6276 3C11.5125 3 9.79785 4.71465 9.79785 6.82979C9.79785 8.94492 11.5125 10.6596 13.6276 10.6596Z" stroke="#FF026C" stroke-miterlimit="10"/>
<path d="M14.585 20.2341L20.2339 23.3937" stroke="#FF026C" stroke-miterlimit="10" stroke-linecap="round"/>
<path d="M16.4043 46.0851V41.2979H26.9362V31.7234H36.5107V22.1489H46.0851" stroke="#FF026C" stroke-miterlimit="10" stroke-linecap="round"/>
</svg>
