<svg width="24" height="24" viewBox="0 0 24 24" fill="none" xmlns="http://www.w3.org/2000/svg">
<path d="M0 4.47433C0.0673845 4.28565 0.181938 4.13067 0.309969 3.98916C1.50268 2.64147 2.87732 1.52963 4.53498 0.781658C4.68996 0.714273 4.85169 0.653627 5.00667 0.586243C5.47162 0.384089 5.94332 0.417781 6.41501 0.55255C6.6239 0.613196 6.81258 0.707535 6.98104 0.842304C7.16298 0.983811 7.29101 1.16575 7.36513 1.38138C7.86378 2.85036 8.36242 4.31935 8.85433 5.79507C9.00931 6.25328 9.11713 6.71824 9.09017 7.2034C9.06996 7.54706 8.9891 7.87051 8.78694 8.15353C8.6926 8.28829 8.55784 8.40959 8.42307 8.50393C8.15353 8.68586 7.87051 8.84085 7.59424 9.01605C7.37187 9.15082 7.15624 9.29906 6.93387 9.44057C6.86648 9.481 6.81258 9.54165 6.75867 9.59555C6.55652 9.77749 6.50261 9.99986 6.57673 10.2627C6.66433 10.5726 6.81258 10.8422 6.98778 11.1117C7.31796 11.6171 7.71553 12.0753 8.13331 12.5133C8.24787 12.6279 8.34894 12.7559 8.45002 12.8772C8.5174 12.9513 8.57805 13.0322 8.65217 13.0996C9.42036 13.8273 10.1885 14.5685 10.9702 15.2828C11.3476 15.6265 11.7721 15.9162 12.1831 16.2195C12.4055 16.3812 12.6548 16.4688 12.9378 16.489C13.113 16.5025 13.2613 16.4553 13.3758 16.3273C13.5173 16.179 13.6521 16.0173 13.7667 15.8421C13.9553 15.5456 14.1238 15.2424 14.3057 14.9459C14.3799 14.8246 14.4675 14.7033 14.5551 14.5887C14.8313 14.2047 15.2289 14.0295 15.6804 13.9621C16.1521 13.8947 16.6103 13.989 17.0618 14.1036C18.3016 14.427 19.528 14.7842 20.7207 15.2559C21.1183 15.4108 21.5024 15.5995 21.8932 15.7747C22.0347 15.8421 22.1426 15.9499 22.2167 16.0847C22.3514 16.334 22.4862 16.5833 22.5401 16.8731C22.6143 17.2572 22.5536 17.6278 22.4323 17.9917C22.2504 18.5712 21.9674 19.1035 21.6439 19.6156C20.997 20.6466 20.2491 21.59 19.3596 22.4256C19.1709 22.6008 18.9553 22.7558 18.7464 22.9107C18.6386 22.9916 18.5173 23.0186 18.3825 23.0186C15.2356 22.9983 12.3246 22.156 9.62251 20.5658C8.0255 19.6224 6.60368 18.4566 5.32338 17.1157C4.31935 16.0645 3.38944 14.9526 2.63474 13.7127C1.63071 12.0686 0.862522 10.3166 0.411046 8.43654C0.256061 7.78965 0.141508 7.12928 0.0943383 6.46217C0.0539076 5.88941 0.0336923 5.31664 0.00673845 4.74387C0.00673845 4.71018 0 4.68322 0 4.64953C0 4.58215 0 4.52824 0 4.47433ZM17.4998 21.9404C17.6278 21.9404 17.7558 21.9337 17.8906 21.9404C18.1938 21.9606 18.4499 21.8595 18.6588 21.6506C18.9283 21.3811 19.2046 21.1116 19.4607 20.8286C20.2356 19.9728 20.869 19.0227 21.3339 17.9647C21.3946 17.8165 21.4552 17.6682 21.5024 17.52C21.5294 17.4391 21.5496 17.3448 21.5563 17.2572C21.5833 17.0213 21.4889 16.8394 21.307 16.6911C21.1116 16.5362 20.8959 16.4418 20.6668 16.3475C19.5819 15.896 18.4634 15.5389 17.3178 15.2693C16.9 15.1683 16.4823 15.0739 16.0577 14.9863C15.7747 14.9324 15.5321 15.02 15.3502 15.2559C15.2896 15.3367 15.2356 15.4108 15.1817 15.4917C14.9189 15.9027 14.6494 16.3138 14.4001 16.7248C14.0901 17.2302 13.6252 17.4526 13.0524 17.4728C12.5335 17.493 12.0484 17.338 11.6104 17.0618C11.3678 16.9135 11.1454 16.7181 10.9163 16.5496C9.02953 15.1211 7.43925 13.4028 6.03092 11.5093C5.81529 11.2195 5.64682 10.9096 5.5727 10.5524C5.50532 10.2424 5.53227 9.93922 5.55922 9.62925C5.59292 9.25863 5.76138 8.96888 6.06461 8.75999C6.19264 8.67239 6.31393 8.58479 6.4487 8.50393C6.8867 8.22091 7.31796 7.9379 7.7627 7.66162C7.98507 7.52011 8.10636 7.33143 8.08614 7.07537C8.07267 6.91365 8.04571 6.75193 7.99181 6.59694C7.64141 5.45814 7.29101 4.32608 6.92713 3.19402C6.77888 2.72233 6.60368 2.25738 6.43522 1.79243C6.3611 1.59027 6.20612 1.46224 5.99049 1.43529C5.87593 1.42181 5.75464 1.42181 5.64009 1.44203C5.28295 1.49593 4.95276 1.64418 4.63606 1.81264C3.37597 2.5067 2.27086 3.38944 1.30052 4.44064C1.25335 4.49455 1.20618 4.54845 1.17249 4.6091C1.13206 4.70344 1.08489 4.79778 1.08489 4.89885C1.05794 5.79507 1.11858 6.69128 1.30052 7.57402C1.48246 8.44328 1.752 9.27885 2.06871 10.1009C2.4191 11.0241 2.80994 11.9338 3.31532 12.7828C4.3463 14.5011 5.58618 16.0443 7.09559 17.365C7.52011 17.7356 7.93116 18.1332 8.3759 18.4768C10.1481 19.8178 12.109 20.7949 14.2384 21.4215C15.303 21.7382 16.3879 21.9337 17.4998 21.9404Z" fill="#F5F07B"/>
<path d="M11.8191 0.0067346C11.9606 0.0202115 12.0954 0.0336884 12.2369 0.0404269C12.4997 0.0539038 12.7558 0.0673807 13.0186 0.0808576C13.4566 0.107811 13.8878 0.208888 14.3123 0.316703C15.6802 0.653626 16.9673 1.18596 18.1196 2.00132C20.0939 3.39618 21.5157 5.21556 22.3446 7.49316C22.5198 7.96485 22.6882 8.43654 22.7758 8.93518C22.8297 9.24515 22.8567 9.56186 22.8971 9.87183C22.9443 10.2424 22.9915 10.6063 23.0386 10.9769C23.0589 11.1589 23.0521 11.3408 22.9847 11.5093C22.9039 11.7182 22.7219 11.8327 22.4861 11.8192C22.23 11.8058 22.0885 11.6979 22.0279 11.4688C22.0009 11.3745 21.9874 11.2734 21.9874 11.1723C21.9874 9.92574 21.7314 8.72629 21.2799 7.57402C20.7004 6.08482 19.8042 4.81799 18.6317 3.73984C17.2368 2.45279 15.6129 1.62396 13.753 1.24661C13.3083 1.15901 12.8434 1.13206 12.3919 1.07141C12.1156 1.03772 11.8393 1.02424 11.5698 0.970333C11.2194 0.89621 11.0779 0.512119 11.2666 0.20215C11.3407 0.0808576 11.4552 0.0404269 11.5833 0.0202115C11.617 0.013473 11.6574 0.00673464 11.6911 -3.8147e-06C11.7315 0.00673464 11.7787 0.0067346 11.8191 0.0067346Z" fill="#F5F07B"/>
<path d="M11.8731 3.2075C12.9041 3.22771 13.9081 3.39618 14.8583 3.80722C15.5456 4.10371 16.1925 4.48107 16.772 4.95276C17.1628 5.26946 17.5537 5.60639 17.8771 6.00396C18.6318 6.93386 19.2181 7.95137 19.5482 9.11038C19.6763 9.55512 19.7976 10.0066 19.8649 10.4716C19.9054 10.7748 19.9323 11.078 19.8582 11.3812C19.811 11.5632 19.7234 11.7316 19.528 11.7923C19.2787 11.8731 18.9957 11.826 18.8946 11.5025C18.8272 11.2802 18.7868 11.0511 18.7598 10.8219C18.6722 10.074 18.5712 9.32601 18.2949 8.61848C17.8097 7.37186 16.9876 6.38131 15.9095 5.59291C15.0537 4.96623 14.1036 4.54171 13.0524 4.35304C12.6952 4.28565 12.3246 4.26544 11.9607 4.22501C11.8462 4.21153 11.7249 4.20479 11.6103 4.17784C11.3206 4.11719 11.2128 3.9959 11.1858 3.69941C11.1589 3.43661 11.3812 3.20076 11.644 3.20076C11.7316 3.2075 11.799 3.2075 11.8731 3.2075Z" fill="#F5F07B"/>
<path d="M16.4416 11.2263C16.4416 11.3071 16.4551 11.388 16.4416 11.4688C16.4282 11.5362 16.4079 11.6171 16.3608 11.671C16.1856 11.8732 15.8082 11.8799 15.6128 11.7047C15.4848 11.5901 15.4646 11.4284 15.4511 11.2734C15.4106 10.8152 15.3635 10.3503 15.1748 9.92574C14.6088 8.65891 13.6789 7.84356 12.2773 7.62793C12.0347 7.5875 11.7854 7.5538 11.5428 7.51337C11.5226 7.51337 11.5091 7.50663 11.4889 7.4999C11.2059 7.41903 11.0846 7.22362 11.1385 6.93387C11.1856 6.69128 11.3474 6.54977 11.6169 6.50934C11.9336 6.46217 12.2436 6.51608 12.5468 6.59694C13.1667 6.75867 13.753 7.00125 14.3123 7.31796C14.5953 7.47968 14.8177 7.71553 15.0468 7.93116C15.7274 8.57805 16.1788 9.36645 16.3406 10.2964C16.3945 10.6063 16.4214 10.9163 16.4618 11.2263C16.4484 11.2263 16.4484 11.2263 16.4416 11.2263Z" fill="#F5F07B"/>
</svg>
